<?xml version="1.0" encoding="UTF-8"?>
<svg version="1.1" xmlns="http://www.w3.org/2000/svg" width="512" height="512">
<path d="M0 0 C0.9355925 -0.00974854 1.871185 -0.01949707 2.83512878 -0.02954102 C23.24416486 -0.1984297 42.96079539 -0.03089418 63.0078125 4.23828125 C63.93158691 4.42551758 64.85536133 4.61275391 65.80712891 4.80566406 C101.4803425 12.13655694 136.04867954 27.05718327 165.0078125 49.23828125 C165.5857959 49.67495117 166.1637793 50.11162109 166.75927734 50.56152344 C175.26586251 57.002323 183.31244993 63.84319145 191.0078125 71.23828125 C191.60239258 71.80562988 192.19697266 72.37297852 192.80957031 72.95751953 C201.15799553 80.96365501 208.80764092 89.18319073 215.69726562 98.47900391 C217.02578341 100.26240538 218.38141287 102.02237641 219.7421875 103.78125 C227.10148221 113.40694237 233.21551204 123.60687263 239.0078125 134.23828125 C239.3697168 134.89876465 239.73162109 135.55924805 240.10449219 136.23974609 C257.60985188 168.57859478 268.92626162 206.31643928 269.24609375 243.23046875 C269.25584229 244.16606125 269.26559082 245.10165375 269.27563477 246.06559753 C269.44452345 266.47463361 269.27698793 286.19126414 265.0078125 306.23828125 C264.82057617 307.16205566 264.63333984 308.08583008 264.44042969 309.03759766 C257.10953681 344.71081125 242.18891048 379.27914829 220.0078125 408.23828125 C219.57114258 408.81626465 219.13447266 409.39424805 218.68457031 409.98974609 C212.24377075 418.49633126 205.4029023 426.54291868 198.0078125 434.23828125 C197.44046387 434.83286133 196.87311523 435.42744141 196.28857422 436.04003906 C188.28243874 444.38846428 180.06290302 452.03810967 170.76708984 458.92773438 C168.98368837 460.25625216 167.22371734 461.61188162 165.46484375 462.97265625 C155.83915138 470.33195096 145.63922112 476.44598079 135.0078125 482.23828125 C134.3473291 482.60018555 133.6868457 482.96208984 133.00634766 483.33496094 C100.66749897 500.84032063 62.92965447 512.15673037 26.015625 512.4765625 C25.0800325 512.48631104 24.14444 512.49605957 23.18049622 512.50610352 C2.77146014 512.6749922 -16.94517039 512.50745668 -36.9921875 508.23828125 C-37.91596191 508.05104492 -38.83973633 507.86380859 -39.79150391 507.67089844 C-75.4647175 500.34000556 -110.03305454 485.41937923 -138.9921875 463.23828125 C-139.5701709 462.80161133 -140.1481543 462.36494141 -140.74365234 461.91503906 C-149.25023751 455.4742395 -157.29682493 448.63337105 -164.9921875 441.23828125 C-165.58676758 440.67093262 -166.18134766 440.10358398 -166.79394531 439.51904297 C-175.14237053 431.51290749 -182.79201592 423.29337177 -189.68164062 413.99755859 C-191.01015841 412.21415712 -192.36578787 410.45418609 -193.7265625 408.6953125 C-201.08585721 399.06962013 -207.19988704 388.86968987 -212.9921875 378.23828125 C-213.3540918 377.57779785 -213.71599609 376.91731445 -214.08886719 376.23681641 C-231.59422688 343.89796772 -242.91063662 306.16012322 -243.23046875 269.24609375 C-243.24021729 268.31050125 -243.24996582 267.37490875 -243.26000977 266.41096497 C-243.42889845 246.00192889 -243.26136293 226.28529836 -238.9921875 206.23828125 C-238.80495117 205.31450684 -238.61771484 204.39073242 -238.42480469 203.43896484 C-231.09391181 167.76575125 -216.17328548 133.19741421 -193.9921875 104.23828125 C-193.55551758 103.66029785 -193.11884766 103.08231445 -192.66894531 102.48681641 C-186.22814575 93.98023124 -179.3872773 85.93364382 -171.9921875 78.23828125 C-171.42483887 77.64370117 -170.85749023 77.04912109 -170.27294922 76.43652344 C-162.26681374 68.08809822 -154.04727802 60.43845283 -144.75146484 53.54882812 C-142.96806337 52.22031034 -141.20809234 50.86468088 -139.44921875 49.50390625 C-129.82352638 42.14461154 -119.62359612 36.03058171 -108.9921875 30.23828125 C-108.3317041 29.87637695 -107.6712207 29.51447266 -106.99072266 29.14160156 C-74.65187397 11.63624187 -36.91402947 0.31983213 0 0 Z " fill="#FEFEFE" transform="translate(242.9921875,-0.23828125)"/>
<path d="M0 0 C1.19882812 0.79470703 1.19882812 0.79470703 2.421875 1.60546875 C2.94265625 2.06566406 3.4634375 2.52585938 4 3 C4 3.99 4 4.98 4 6 C2.5459375 6.27650391 2.5459375 6.27650391 1.0625 6.55859375 C-15.04201206 9.91987055 -27.29304981 17.63994543 -39.39355469 28.55419922 C-54.45738829 42.11164946 -69.90837458 54.71188874 -88 64 C-88.99 64.51699463 -88.99 64.51699463 -90 65.04443359 C-96.74811165 68.51077405 -103.75224922 70.82860211 -111 73 C-111.63566895 73.20189941 -112.27133789 73.40379883 -112.92626953 73.61181641 C-132.79718924 79.7675092 -156.71749653 78.54879052 -177 75 C-178.86978516 74.78150391 -178.86978516 74.78150391 -180.77734375 74.55859375 C-184 74 -184 74 -186 72 C-185.65123642 68.46893329 -184.91241709 67.92258191 -182.10546875 65.44140625 C-180.80900923 64.46893433 -179.50215605 63.51022802 -178.1875 62.5625 C-177.47972412 62.04316895 -176.77194824 61.52383789 -176.04272461 60.98876953 C-167.26782084 54.62931701 -158.18069196 48.75230381 -149 43 C-148.31953613 42.57009766 -147.63907227 42.14019531 -146.93798828 41.69726562 C-126.42618934 28.83402186 -104.32614746 17.616799 -81 11 C-114.89120725 16.96672944 -167.60491676 35.60854662 -188.44433594 64.68359375 C-190.35398116 67.41933033 -192.17762972 70.20524558 -194 73 C-194.5465625 73.81210938 -195.093125 74.62421875 -195.65625 75.4609375 C-205.83542022 91.32528257 -212.03255606 111.13062438 -212.23828125 129.92578125 C-212.24825638 130.66626205 -212.25823151 131.40674286 -212.26850891 132.16966248 C-212.78864003 154.43813836 -212.78864003 154.43813836 -208 176 C-207.66677734 176.9266748 -207.33355469 177.85334961 -206.99023438 178.80810547 C-202.13944787 191.9466995 -196.47055366 203.8361731 -188 215 C-186.96552734 216.3921875 -186.96552734 216.3921875 -185.91015625 217.8125 C-167.74492222 241.40931886 -141.08110714 257.15604235 -112 263 C-111.14398193 263.17950195 -110.28796387 263.35900391 -109.40600586 263.54394531 C-101.56473004 265.03752166 -93.86806402 265.30897962 -85.91723633 265.26074219 C-83.8045621 265.24995949 -81.69272781 265.26073571 -79.58007812 265.2734375 C-72.42841667 265.28067576 -65.91239509 264.89669377 -59 263 C-58.07574219 262.81179688 -57.15148437 262.62359375 -56.19921875 262.4296875 C-22.19773901 254.92080706 6.06298509 232.85227304 24.6484375 203.87890625 C41.97465272 175.91783496 47.22631376 141.92662703 40.75390625 109.83984375 C39.97867524 105.89138736 39.45879098 101.9954904 39 98 C49.66140561 113.99210842 48.13977164 144.42391457 44.61474609 162.54272461 C38.42321259 190.21176342 26.39974433 213.41030853 7 234 C6.17628906 234.90298828 6.17628906 234.90298828 5.3359375 235.82421875 C-12.52419745 254.69613474 -37.81815092 266.80092614 -63 272 C-63.78818115 272.1762793 -64.5763623 272.35255859 -65.38842773 272.53417969 C-73.39206865 274.18701142 -81.28685464 274.39767034 -89.4375 274.375 C-90.49189774 274.37468277 -90.49189774 274.37468277 -91.56759644 274.37435913 C-103.41753612 274.33888379 -114.57308774 273.25299467 -126 270 C-126.66692871 269.81808105 -127.33385742 269.63616211 -128.02099609 269.44873047 C-150.2849119 263.24057652 -170.39455842 250.64629876 -186.6015625 234.390625 C-187.93469106 233.06183888 -189.27977813 231.74380972 -190.66796875 230.47265625 C-214.94574515 207.94238047 -226.67132016 171.96725924 -228.2890625 139.76953125 C-229.4485136 105.89237126 -217.89235772 73.18470139 -196.55859375 47.00390625 C-191.92509426 41.25761968 -188.14631879 35.69611422 -185 29 C-172.88682401 3.34910912 -149.6017312 -13.26094585 -123.5625 -22.875 C-118.41023213 -24.61178477 -113.35816522 -26.08627315 -108 -27 C-107.03578125 -27.18433594 -106.0715625 -27.36867188 -105.078125 -27.55859375 C-66.89777885 -34.05642261 -30.9803805 -21.91200279 0 0 Z " fill="#098C48" transform="translate(347,146)"/>
<path d="M0 0 C2.87602455 -0.10852923 5.74790832 -0.1875515 8.625 -0.25 C9.43324219 -0.28351563 10.24148438 -0.31703125 11.07421875 -0.3515625 C16.72969459 -0.44352146 19.62149319 0.38117103 24 4 C25 5 25 5 25.3125 7.8125 C25 11 25 11 23.125 13.3125 C21 15 21 15 19 16 C20.83509899 21.67212414 24.02695413 25.68463608 29 29 C29 29.66 29 30.32 29 31 C25.14703613 31 23.01410414 30.90257334 20.08203125 28.29296875 C17.71148635 25.56861118 15.53365186 22.77434535 13.484375 19.80078125 C12.03375863 17.71630697 12.03375863 17.71630697 9 17 C9 20.63 9 24.26 9 28 C10.32 28.33 11.64 28.66 13 29 C13 29.33 13 29.66 13 30 C8.71 30 4.42 30 0 30 C0 29.34 0 28.68 0 28 C0.99 27.67 1.98 27.34 3 27 C3.33 19.08 3.66 11.16 4 3 C2.68 2.67 1.36 2.34 0 2 C0 1.34 0 0.68 0 0 Z " fill="#1A9454" transform="translate(293,258)"/>
<path d="M0 0 C3.05027128 -0.2440217 4.3245302 -0.3377349 7 1 C11.65849991 7.53981718 14.12373589 15.65591661 16.7265625 23.1875 C18.07612958 26.16813896 19.55793125 27.85674979 22 30 C21 31 21 31 18.27734375 31.09765625 C17.17519531 31.08605469 16.07304687 31.07445312 14.9375 31.0625 C13.83277344 31.05347656 12.72804687 31.04445313 11.58984375 31.03515625 C10.73519531 31.02355469 9.88054687 31.01195312 9 31 C9 30.01 9 29.02 9 28 C10.32 28 11.64 28 13 28 C12.34 25.69 11.68 23.38 11 21 C6.71 21 2.42 21 -2 21 C-2.33 23.31 -2.66 25.62 -3 28 C-1.68 28 -0.36 28 1 28 C1 28.99 1 29.98 1 31 C-2.63 31 -6.26 31 -10 31 C-10 30.01 -10 29.02 -10 28 C-9.01 27.67 -8.02 27.34 -7 27 C-5.74616326 24.95621634 -5.74616326 24.95621634 -4.73828125 22.4140625 C-4.34189453 21.48335938 -3.94550781 20.55265625 -3.53710938 19.59375 C-3.13298828 18.6140625 -2.72886719 17.634375 -2.3125 16.625 C-1.68891602 15.16707031 -1.68891602 15.16707031 -1.05273438 13.6796875 C1.25217396 8.51371131 1.25217396 8.51371131 2 3 C1.34 2.67 0.68 2.34 0 2 C0 1.34 0 0.68 0 0 Z " fill="#1A9454" transform="translate(206,258)"/>
<path d="M0 0 C3.1875 -0.3125 3.1875 -0.3125 7 0 C10.60094106 3.193179 13.60164993 6.82746787 16.625 10.5625 C17.38039062 11.49191406 18.13578125 12.42132813 18.9140625 13.37890625 C20.64704048 15.55648719 22.3302019 17.77360253 24 20 C24 14.39 24 8.78 24 3 C23.01 2.67 22.02 2.34 21 2 C21 1.34 21 0.68 21 0 C24.63 0 28.26 0 32 0 C32 0.66 32 1.32 32 2 C30.02 2.99 30.02 2.99 28 4 C27.67 12.58 27.34 21.16 27 30 C26.01 30 25.02 30 24 30 C22.40600586 28.3034668 22.40600586 28.3034668 20.71484375 25.94921875 C20.10189453 25.10552734 19.48894531 24.26183594 18.85742188 23.39257812 C18.22384766 22.49990234 17.59027344 21.60722656 16.9375 20.6875 C16.30005859 19.80642578 15.66261719 18.92535156 15.00585938 18.01757812 C12.61860347 14.70963133 10.26297175 11.39445763 8 8 C7.67 14.6 7.34 21.2 7 28 C8.32 28.33 9.64 28.66 11 29 C11 29.33 11 29.66 11 30 C7.37 30 3.74 30 0 30 C0.33 29.34 0.66 28.68 1 28 C1.99 28 2.98 28 4 28 C3.67 19.75 3.34 11.5 3 3 C2.01 2.67 1.02 2.34 0 2 C0 1.34 0 0.68 0 0 Z " fill="#1F9658" transform="translate(163,258)"/>
<path d="M0 0 C7.26 0 14.52 0 22 0 C22 2.97 22 5.94 22 9 C21.01 8.67 20.02 8.34 19 8 C17.8125 5.4375 17.8125 5.4375 17 3 C14.36 2.67 11.72 2.34 9 2 C9 5.96 9 9.92 9 14 C11.97 14 14.94 14 18 14 C18 14.99 18 15.98 18 17 C15.03 17 12.06 17 9 17 C9 20.63 9 24.26 9 28 C12.63 28 16.26 28 20 28 C20.66 26.02 21.32 24.04 22 22 C22.66 22 23.32 22 24 22 C23.67 24.97 23.34 27.94 23 31 C15.41 31 7.82 31 0 31 C0 30.01 0 29.02 0 28 C0.99 27.67 1.98 27.34 3 27 C3 19.08 3 11.16 3 3 C2.01 2.67 1.02 2.34 0 2 C0 1.34 0 0.68 0 0 Z " fill="#1E9657" transform="translate(325,258)"/>
<path d="M0 0 C2.9375 2.125 2.9375 2.125 5 5 C5.71638126 10.01466885 5.00648166 12.95281315 2 17 C-0.35858628 19.35858628 -1.07631948 19.36946499 -4.3125 19.5 C-8.19483524 19.3998107 -8.87571228 19.10145936 -12.0625 16.5 C-14.71565523 12.58960049 -14.73301898 9.61801955 -14 5 C-9.52139324 -0.53932942 -6.92988354 -1.64437915 0 0 Z " fill="#FBFDFC" transform="translate(194,310)"/>
<path d="M0 0 C4.62 0 9.24 0 14 0 C14 0.66 14 1.32 14 2 C12.02 2.99 12.02 2.99 10 4 C9.9417747 7.08325358 9.90632866 10.16636505 9.875 13.25 C9.85824219 14.12269531 9.84148437 14.99539063 9.82421875 15.89453125 C9.81455078 17.16103516 9.81455078 17.16103516 9.8046875 18.453125 C9.78897705 19.61569824 9.78897705 19.61569824 9.77294922 20.80175781 C10.02673444 23.25883539 10.77555848 24.87311542 12 27 C13.62418745 27.08090971 15.24951745 27.13914995 16.875 27.1875 C17.77992188 27.22230469 18.68484375 27.25710938 19.6171875 27.29296875 C20.40351563 27.19628906 21.18984375 27.09960938 22 27 C24.16926659 23.74610012 24.24080049 22.86604043 24.1953125 19.11328125 C24.18886719 18.17548828 24.18242187 17.23769531 24.17578125 16.27148438 C24.15902344 15.29501953 24.14226562 14.31855469 24.125 13.3125 C24.11597656 12.32443359 24.10695313 11.33636719 24.09765625 10.31835938 C24.0740843 7.87866235 24.04118022 5.43945303 24 3 C22.68 2.67 21.36 2.34 20 2 C20 1.34 20 0.68 20 0 C24.29 0 28.58 0 33 0 C33 0.66 33 1.32 33 2 C31.68 2.33 30.36 2.66 29 3 C28.98541748 3.60996826 28.97083496 4.21993652 28.95581055 4.84838867 C28.88105225 7.62871064 28.78448518 10.40786824 28.6875 13.1875 C28.66494141 14.14720703 28.64238281 15.10691406 28.61914062 16.09570312 C28.27010009 25.26594978 28.27010009 25.26594978 25 29 C21.97643746 31.09667761 19.19794076 31.37898672 15.5625 31.5 C14.63566406 31.5515625 13.70882813 31.603125 12.75390625 31.65625 C9.54553591 30.89170217 7.9457177 29.64130763 5.97094727 27.00097656 C4.0011274 22.94147351 4.21452806 18.55760202 4.1875 14.125 C4.16236328 13.15046875 4.13722656 12.1759375 4.11132812 11.171875 C4.05272442 8.78084372 4.01625009 6.39163153 4 4 C2.68 3.34 1.36 2.68 0 2 C0 1.34 0 0.68 0 0 Z " fill="#169251" transform="translate(257,258)"/>
<path d="M0 0 C4.14581887 -0.02886751 8.29161216 -0.04675327 12.4375 -0.0625 C14.21350586 -0.07506836 14.21350586 -0.07506836 16.02539062 -0.08789062 C17.15009766 -0.09111328 18.27480469 -0.09433594 19.43359375 -0.09765625 C20.47572021 -0.10289307 21.51784668 -0.10812988 22.59155273 -0.11352539 C25 0 25 0 26 1 C26.14115161 3.67058851 26.04247107 6.32432238 26 9 C25.01 9 24.02 9 23 9 C22.67 7.02 22.34 5.04 22 3 C19.69 2.67 17.38 2.34 15 2 C15.33 10.25 15.66 18.5 16 27 C16.99 27.33 17.98 27.66 19 28 C19 28.66 19 29.32 19 30 C14.71 30 10.42 30 6 30 C6.33 29.34 6.66 28.68 7 28 C7.99 28 8.98 28 10 28 C10 19.42 10 10.84 10 2 C4.0205647 3.22243212 4.0205647 3.22243212 2.625 6.625 C2.41875 7.40875 2.2125 8.1925 2 9 C1.34 9 0.68 9 0 9 C0 6.03 0 3.06 0 0 Z " fill="#0B8D49" transform="translate(229,258)"/>
<path d="M0 0 C1.8125 1.1875 1.8125 1.1875 3 3 C3.4375 5.9375 3.4375 5.9375 3 9 C1.1329009 11.30275556 -0.35647741 12.67823871 -3 14 C-1.16490101 19.67212414 2.02695413 23.68463608 7 27 C7 27.66 7 28.32 7 29 C3.11088237 29 1.00355986 28.89517539 -1.953125 26.2578125 C-9 18.17463235 -9 18.17463235 -9 14 C-10.32 13.67 -11.64 13.34 -13 13 C-12.36191406 12.86722656 -11.72382813 12.73445313 -11.06640625 12.59765625 C-10.24011719 12.42105469 -9.41382813 12.24445313 -8.5625 12.0625 C-7.73878906 11.88847656 -6.91507812 11.71445312 -6.06640625 11.53515625 C-4.02338796 11.19247006 -4.02338796 11.19247006 -3 10 C-2.85363946 6.63370749 -2.92806521 4.21580438 -4 1 C-4.99 0.67 -5.98 0.34 -7 0 C-4.26634878 -1.36682561 -2.89333621 -0.84683011 0 0 Z " fill="#169251" transform="translate(315,260)"/>
<path d="M0 0 C2.3125 0.0625 2.3125 0.0625 5 1 C7.25871586 5.0501112 8.4221879 8.35593314 8 13 C8.66 13 9.32 13 10 13 C10.04898438 12.39671875 10.09796875 11.7934375 10.1484375 11.171875 C10.22320312 10.37265625 10.29796875 9.5734375 10.375 8.75 C10.44460937 7.96109375 10.51421875 7.1721875 10.5859375 6.359375 C11.01507113 3.914123 11.78600638 2.15163097 13 0 C13.66 0 14.32 0 15 0 C16.32 3.63 17.64 7.26 19 11 C20.32 7.7 21.64 4.4 23 1 C22.34 0.67 21.68 0.34 21 0 C23.31 0 25.62 0 28 0 C27.01 0.66 26.02 1.32 25 2 C23.98034964 4.71715279 23.10731685 7.34434166 22.3125 10.125 C22.08755859 10.87910156 21.86261719 11.63320313 21.63085938 12.41015625 C21.07745009 14.27055343 20.53743072 16.13492421 20 18 C19.01 18 18.02 18 17 18 C16.01 14.37 15.02 10.74 14 7 C13.34 7 12.68 7 12 7 C11.87625 8.051875 11.7525 9.10375 11.625 10.1875 C11.08859218 13.45958771 10.36119965 16.00536076 9 19 C7 18 7 18 5.78125 14.7265625 C5.3467388 13.36171751 4.91997913 11.99438649 4.5 10.625 C2.78233812 5.08433716 2.78233812 5.08433716 0 0 Z " fill="#209658" transform="translate(230,310)"/>
<path d="M0 0 C2.64 0 5.28 0 8 0 C7.34 0.66 6.68 1.32 6 2 C5.59952556 4.32275177 5.2602896 6.65739357 5 9 C8.3 9 11.6 9 15 9 C14.67039784 3.98464948 14.67039784 3.98464948 12 0 C14.64 0 17.28 0 20 0 C19.01 0.495 19.01 0.495 18 1 C18 6.28 18 11.56 18 17 C18.66 17 19.32 17 20 17 C20 17.66 20 18.32 20 19 C17.36 19 14.72 19 12 19 C12 18.34 12 17.68 12 17 C12.99 17 13.98 17 15 17 C15 14.69 15 12.38 15 10 C11.7 10 8.4 10 5 10 C5 12.31 5 14.62 5 17 C5.99 17 6.98 17 8 17 C8 17.66 8 18.32 8 19 C5.36 19 2.72 19 0 19 C0 18.34 0 17.68 0 17 C0.66 17 1.32 17 2 17 C2 11.72 2 6.44 2 1 C1.34 0.67 0.68 0.34 0 0 Z " fill="#209759" transform="translate(259,310)"/>
<path d="M0 0 C2.26953125 -0.23828125 2.26953125 -0.23828125 5 0 C6.94921875 1.64453125 6.94921875 1.64453125 8.6875 3.8125 C9.55955078 4.87404297 9.55955078 4.87404297 10.44921875 5.95703125 C11.69224118 7.59456457 12.85960599 9.28940898 14 11 C14.33 7.7 14.66 4.4 15 1 C14.34 0.67 13.68 0.34 13 0 C15.31 0 17.62 0 20 0 C19.34 0.66 18.68 1.32 18 2 C17.69324768 4.89967757 17.48826629 7.71783178 17.375 10.625 C17.33632812 11.42679687 17.29765625 12.22859375 17.2578125 13.0546875 C17.16346069 15.03607556 17.08063785 17.01800645 17 19 C16.34 19 15.68 19 15 19 C13.20916148 16.69833213 11.52740758 14.39761099 9.875 12 C9.17310547 10.99839844 9.17310547 10.99839844 8.45703125 9.9765625 C7.29873764 8.32185734 6.14860235 6.66144693 5 5 C4.67 8.96 4.34 12.92 4 17 C4.99 17.33 5.98 17.66 7 18 C7 18.33 7 18.66 7 19 C4.69 19 2.38 19 0 19 C0 18.34 0 17.68 0 17 C0.66 17 1.32 17 2 17 C2 11.72 2 6.44 2 1 C1.34 0.67 0.68 0.34 0 0 Z " fill="#289A5F" transform="translate(202,310)"/>
<path d="M0 0 C2.9375 2.125 2.9375 2.125 5 5 C5.71638126 10.01466885 5.00648166 12.95281315 2 17 C-0.35858628 19.35858628 -1.07631948 19.36946499 -4.3125 19.5 C-8.19483524 19.3998107 -8.87571228 19.10145936 -12.0625 16.5 C-14.71565523 12.58960049 -14.73301898 9.61801955 -14 5 C-9.52139324 -0.53932942 -6.92988354 -1.64437915 0 0 Z M-8 1 C-10.22264871 4.33397306 -10.29675463 5.59514891 -10.3125 9.5 C-10.32925781 10.4590625 -10.34601563 11.418125 -10.36328125 12.40625 C-10.20952429 15.02573792 -10.20952429 15.02573792 -8.63671875 16.81640625 C-6.98883496 18.18984077 -6.98883496 18.18984077 -4.5 18.4375 C-1.90376546 18.23806267 -1.90376546 18.23806267 -0.3671875 16.2890625 C1.23081451 13.61355056 1.40300234 12.03175893 1.375 8.9375 C1.38273438 8.08027344 1.39046875 7.22304688 1.3984375 6.33984375 C0.9228339 3.54683831 0.27061393 2.65377267 -2 1 C-5.04230823 0.49989476 -5.04230823 0.49989476 -8 1 Z " fill="#23985B" transform="translate(194,310)"/>
<path d="M0 0 C4.62 0 9.24 0 14 0 C14 1.65 14 3.3 14 5 C13.34 5 12.68 5 12 5 C11.67 4.01 11.34 3.02 11 2 C9.35 1.67 7.7 1.34 6 1 C6 3.64 6 6.28 6 9 C7.65 9 9.3 9 11 9 C11 9.33 11 9.66 11 10 C9.35 10 7.7 10 6 10 C6 12.31 6 14.62 6 17 C8.31 17 10.62 17 13 17 C13 16.01 13 15.02 13 14 C13.66 14 14.32 14 15 14 C15 15.65 15 17.3 15 19 C10.05 19 5.1 19 0 19 C0 18.34 0 17.68 0 17 C0.66 17 1.32 17 2 17 C2 11.72 2 6.44 2 1 C1.34 0.67 0.68 0.34 0 0 Z " fill="#2F9D64" transform="translate(300,310)"/>
<path d="M0 0 C5.79152098 0.36771562 5.79152098 0.36771562 8 1 C10.31361802 4.47042703 10.51020728 5.91834173 10 10 C8.4375 11.875 8.4375 11.875 6 13 C2.25 13.1875 2.25 13.1875 -1 13 C-1.02686553 11.02090602 -1.04633375 9.04171029 -1.0625 7.0625 C-1.07410156 5.96035156 -1.08570313 4.85820312 -1.09765625 3.72265625 C-1 1 -1 1 0 0 Z " fill="#F8FCFA" transform="translate(303,260)"/>
<path d="M0 0 C4.14581887 -0.02886751 8.29161216 -0.04675327 12.4375 -0.0625 C14.21350586 -0.07506836 14.21350586 -0.07506836 16.02539062 -0.08789062 C17.15009766 -0.09111328 18.27480469 -0.09433594 19.43359375 -0.09765625 C20.47572021 -0.10289307 21.51784668 -0.10812988 22.59155273 -0.11352539 C25 0 25 0 26 1 C26.14115161 3.67058851 26.04247107 6.32432238 26 9 C25.01 9 24.02 9 23 9 C22.34 6.36 21.68 3.72 21 1 C17.7 1 14.4 1 11 1 C11 9.58 11 18.16 11 27 C10.67 27 10.34 27 10 27 C10 18.75 10 10.5 10 2 C4.0205647 3.22243212 4.0205647 3.22243212 2.625 6.625 C2.41875 7.40875 2.2125 8.1925 2 9 C1.34 9 0.68 9 0 9 C0 6.03 0 3.06 0 0 Z " fill="#37A16A" transform="translate(229,258)"/>
<path d="M0 0 C4.62 0 9.24 0 14 0 C14 1.65 14 3.3 14 5 C13.34 5 12.68 5 12 5 C11.67 4.01 11.34 3.02 11 2 C9.35 1.67 7.7 1.34 6 1 C6 3.64 6 6.28 6 9 C7.65 9 9.3 9 11 9 C11 9.33 11 9.66 11 10 C9.35 10 7.7 10 6 10 C6 12.31 6 14.62 6 17 C8.31 17 10.62 17 13 17 C13 16.01 13 15.02 13 14 C13.66 14 14.32 14 15 14 C15 15.65 15 17.3 15 19 C10.05 19 5.1 19 0 19 C0 18.34 0 17.68 0 17 C0.99 17 1.98 17 3 17 C2.88630789 14.54066009 2.75957349 12.0832091 2.625 9.625 C2.5940625 8.92632812 2.563125 8.22765625 2.53125 7.5078125 C2.40500502 3.29814173 2.40500502 3.29814173 0 0 Z " fill="#199353" transform="translate(282,310)"/>
<path d="M0 0 C4.29 0 8.58 0 13 0 C13 0.66 13 1.32 13 2 C11.68 2.33 10.36 2.66 9 3 C8.98541748 3.60996826 8.97083496 4.21993652 8.95581055 4.84838867 C8.88105225 7.62871064 8.78448518 10.40786824 8.6875 13.1875 C8.65366211 14.62706055 8.65366211 14.62706055 8.61914062 16.09570312 C8.27080187 25.24751235 8.27080187 25.24751235 5 29 C4.01 29.33 3.02 29.66 2 30 C2.50603992 27.83125748 2.99983813 26.00032373 4 24 C4.08400529 22.40552536 4.10727467 20.80759455 4.09765625 19.2109375 C4.09443359 18.26992188 4.09121094 17.32890625 4.08789062 16.359375 C4.07951172 15.37453125 4.07113281 14.3896875 4.0625 13.375 C4.05798828 12.38242187 4.05347656 11.38984375 4.04882812 10.3671875 C4.03702145 7.9113984 4.020554 5.45572896 4 3 C2.68 2.67 1.36 2.34 0 2 C0 1.34 0 0.68 0 0 Z " fill="#1D9556" transform="translate(277,258)"/>
<path d="M0 0 C7.57594855 11.36392283 7.17872337 28.79101552 7.25 42 C7.25926514 43.08692139 7.26853027 44.17384277 7.27807617 45.29370117 C7.25716481 50.57361404 7.15474277 55.07487368 5 60 C4.67 60 4.34 60 4 60 C4.01571045 59.06430176 4.0314209 58.12860352 4.04760742 57.16455078 C4.29124819 40.45099993 4.51412084 24.42350776 1 8 C0.61678347 5.3367326 0.30399658 2.67398933 0 0 Z " fill="#59B183" transform="translate(386,244)"/>
<path d="M0 0 C2.64 0 5.28 0 8 0 C7.34 0.66 6.68 1.32 6 2 C5.69400937 4.56916657 5.48912913 7.04758384 5.375 9.625 C5.33632813 10.33140625 5.29765625 11.0378125 5.2578125 11.765625 C5.16352276 13.50998524 5.08067109 15.25495691 5 17 C7.3431213 16.74438677 9.67843403 16.40729228 12 16 C12.33 15.34 12.66 14.68 13 14 C13.66 14 14.32 14 15 14 C14.67 15.65 14.34 17.3 14 19 C9.38 19 4.76 19 0 19 C0 18.34 0 17.68 0 17 C0.66 17 1.32 17 2 17 C2 11.72 2 6.44 2 1 C1.34 0.67 0.68 0.34 0 0 Z " fill="#1D9557" transform="translate(318,310)"/>
<path d="M0 0 C0.99 0 1.98 0 3 0 C2.37943465 6.51976685 0.89479486 12.53348477 -0.9375 18.8125 C-1.20240234 19.75287109 -1.46730469 20.69324219 -1.74023438 21.66210938 C-3.74292991 28.61439486 -3.74292991 28.61439486 -6 32 C-7.485 32.495 -7.485 32.495 -9 33 C-8.5875 31.783125 -8.175 30.56625 -7.75 29.3125 C-7.16374817 27.54263072 -6.58075804 25.77167959 -6 24 C-5.66355469 22.97519531 -5.32710938 21.95039063 -4.98046875 20.89453125 C-2.77507622 13.98099736 -1.09279866 7.17508593 0 0 Z " fill="#199354" transform="translate(389,302)"/>
<path d="M0 0 C2.3125 0.0625 2.3125 0.0625 5 1 C7.25871586 5.0501112 8.4221879 8.35593314 8 13 C8.66 13 9.32 13 10 13 C10.33 10.03 10.66 7.06 11 4 C11.99 4.33 12.98 4.66 14 5 C14 5.66 14 6.32 14 7 C13.34 7 12.68 7 12 7 C11.87625 8.051875 11.7525 9.10375 11.625 10.1875 C11.08859218 13.45958771 10.36119965 16.00536076 9 19 C7 18 7 18 5.78125 14.7265625 C5.3467388 13.36171751 4.91997913 11.99438649 4.5 10.625 C2.78233812 5.08433716 2.78233812 5.08433716 0 0 Z " fill="#279A5E" transform="translate(230,310)"/>
<path d="M0 0 C2.56529454 1.28264727 2.66499863 2.22772349 3.625 4.875 C3.88539063 5.57367188 4.14578125 6.27234375 4.4140625 6.9921875 C5 9 5 9 5 12 C2.03 12 -0.94 12 -4 12 C-3.52309796 10.37433394 -3.04340334 8.74948689 -2.5625 7.125 C-2.29566406 6.22007812 -2.02882812 5.31515625 -1.75390625 4.3828125 C-1 2 -1 2 0 0 Z " fill="#EBF5F0" transform="translate(210,265)"/>
<path d="M0 0 C0.66 0 1.32 0 2 0 C1.67 2.97 1.34 5.94 1 9 C-6.59 9 -14.18 9 -22 9 C-22 8.67 -22 8.34 -22 8 C-18.7 7.67 -15.4 7.34 -12 7 C-12 6.67 -12 6.34 -12 6 C-8.7 6 -5.4 6 -2 6 C-1.34 4.02 -0.68 2.04 0 0 Z " fill="#50AD7C" transform="translate(347,280)"/>
<path d="M0 0 C4.14581887 -0.02886751 8.29161216 -0.04675327 12.4375 -0.0625 C14.21350586 -0.07506836 14.21350586 -0.07506836 16.02539062 -0.08789062 C17.15009766 -0.09111328 18.27480469 -0.09433594 19.43359375 -0.09765625 C20.47572021 -0.10289307 21.51784668 -0.10812988 22.59155273 -0.11352539 C25 0 25 0 26 1 C26.14115161 3.67058851 26.04247107 6.32432238 26 9 C25.01 9 24.02 9 23 9 C22.34 6.36 21.68 3.72 21 1 C14.07 1 7.14 1 0 1 C0 0.67 0 0.34 0 0 Z " fill="#2C9C61" transform="translate(229,258)"/>
<path d="M0 0 C3.63 0 7.26 0 11 0 C11 0.66 11 1.32 11 2 C10.360625 2.28875 9.72125 2.5775 9.0625 2.875 C6.84793921 3.82823451 6.84793921 3.82823451 6 6 C5.7677354 8.71262116 5.58063765 11.40773126 5.4375 14.125 C5.39431641 14.87910156 5.35113281 15.63320313 5.30664062 16.41015625 C5.2005168 18.27321888 5.09974999 20.13658524 5 22 C4.34 21.67 3.68 21.34 3 21 C3 15.06 3 9.12 3 3 C2.01 2.67 1.02 2.34 0 2 C0 1.34 0 0.68 0 0 Z " fill="#279A5E" transform="translate(184,258)"/>
<path d="M0 0 C0.33 0 0.66 0 1 0 C1.12117187 0.69867188 1.24234375 1.39734375 1.3671875 2.1171875 C1.53476563 3.02726562 1.70234375 3.93734375 1.875 4.875 C2.03742188 5.77992188 2.19984375 6.68484375 2.3671875 7.6171875 C2.83044703 10.16505988 2.83044703 10.16505988 5 12 C7.57061311 12.64767793 7.57061311 12.64767793 10 13 C10 13.33 10 13.66 10 14 C6.8125 14.375 6.8125 14.375 3 14 C-0.33474507 11.02001504 -1.83654924 9.21420565 -2.4375 4.75 C-2 2 -2 2 0 0 Z " fill="#13904F" transform="translate(182,315)"/>
<path d="M0 0 C0.33 0 0.66 0 1 0 C1.33 6.93 1.66 13.86 2 21 C3.32 21.66 4.64 22.32 6 23 C6 23.33 6 23.66 6 24 C2.37 24 -1.26 24 -5 24 C-4 22 -4 22 -1 21 C-0.67 14.07 -0.34 7.14 0 0 Z " fill="#108F4D" transform="translate(168,264)"/>
<path d="M0 0 C0.99 0.66 1.98 1.32 3 2 C2.67 6.29 2.34 10.58 2 15 C2.99 15.33 3.98 15.66 5 16 C5 16.33 5 16.66 5 17 C2.69 17 0.38 17 -2 17 C-2 16.34 -2 15.68 -2 15 C-1.34 15 -0.68 15 0 15 C0 10.05 0 5.1 0 0 Z " fill="#49AA77" transform="translate(204,312)"/>
<path d="M0 0 C0.99 0.33 1.98 0.66 3 1 C3 1.66 3 2.32 3 3 C4.32 3 5.64 3 7 3 C7 3.99 7 4.98 7 6 C3.37 6 -0.26 6 -4 6 C-4 5.01 -4 4.02 -4 3 C-3.01 2.67 -2.02 2.34 -1 2 C-0.67 1.34 -0.34 0.68 0 0 Z " fill="#42A672" transform="translate(200,283)"/>
<path d="M0 0 C0.33 0.66 0.66 1.32 1 2 C1.66 2.33 2.32 2.66 3 3 C2.43711205 4.98507824 1.84902373 6.96302563 1.25 8.9375 C0.76273437 10.59072266 0.76273437 10.59072266 0.265625 12.27734375 C-1 15 -1 15 -3.140625 15.87890625 C-4.06101562 15.93884766 -4.06101562 15.93884766 -5 16 C-4.80664062 15.43152344 -4.61328125 14.86304688 -4.4140625 14.27734375 C-2.81863577 9.54635062 -1.33099414 4.81205575 0 0 Z " fill="#1F9658" transform="translate(385,319)"/>
<path d="M0 0 C-3.43124335 1.06310176 -6.87067637 2.09671871 -10.3125 3.125 C-11.77719727 3.57939453 -11.77719727 3.57939453 -13.27148438 4.04296875 C-14.20927734 4.32011719 -15.14707031 4.59726563 -16.11328125 4.8828125 C-16.97735596 5.14465332 -17.84143066 5.40649414 -18.73168945 5.67626953 C-21 6 -21 6 -24 4 C-21.79290017 3.34996375 -19.58426108 2.70515255 -17.375 2.0625 C-16.14523437 1.70285156 -14.91546875 1.34320313 -13.6484375 0.97265625 C-4.83812983 -1.37613027 -4.83812983 -1.37613027 0 0 Z " fill="#A8D6BE" transform="translate(273,156)"/>
<path d="M0 0 C0.33 0 0.66 0 1 0 C1.08115993 3.06303578 1.14057409 6.12390815 1.1875 9.1875 C1.21263672 10.05181641 1.23777344 10.91613281 1.26367188 11.80664062 C1.31937772 16.65304882 1.31364514 20.14566685 -2 24 C-2.99 24.33 -3.98 24.66 -5 25 C-4.58291388 22.58090052 -4.33882125 21.30772568 -2.48901367 19.62768555 C-0.61860735 17.58308824 -0.58531124 16.50577707 -0.48828125 13.76953125 C-0.43510742 12.56586914 -0.43510742 12.56586914 -0.38085938 11.33789062 C-0.34702148 10.08782227 -0.34702148 10.08782227 -0.3125 8.8125 C-0.27833984 7.96751953 -0.24417969 7.12253906 -0.20898438 6.25195312 C-0.12658529 4.16843351 -0.06161355 2.08423784 0 0 Z " fill="#319F66" transform="translate(284,263)"/>
<path d="M0 0 C0.66 0 1.32 0 2 0 C1.67 1.65 1.34 3.3 1 5 C-3.62 5 -8.24 5 -13 5 C-13 4.34 -13 3.68 -13 3 C-12.14535156 2.95101563 -11.29070312 2.90203125 -10.41015625 2.8515625 C-9.30542969 2.77679688 -8.20070313 2.70203125 -7.0625 2.625 C-5.40927734 2.52058594 -5.40927734 2.52058594 -3.72265625 2.4140625 C-2.37494141 2.20910156 -2.37494141 2.20910156 -1 2 C-0.67 1.34 -0.34 0.68 0 0 Z " fill="#45A874" transform="translate(331,324)"/>
<path d="M0 0 C0.66 0 1.32 0 2 0 C2 1.65 2 3.3 2 5 C-2.95 5 -7.9 5 -13 5 C-13 4.34 -13 3.68 -13 3 C-8.71 3 -4.42 3 0 3 C0 2.01 0 1.02 0 0 Z " fill="#46A875" transform="translate(313,324)"/>
<path d="M0 0 C0.66 0 1.32 0 2 0 C2 1.65 2 3.3 2 5 C-2.95 5 -7.9 5 -13 5 C-13 4.34 -13 3.68 -13 3 C-8.71 3 -4.42 3 0 3 C0 2.01 0 1.02 0 0 Z " fill="#47A976" transform="translate(295,324)"/>
<path d="M0 0 C-0.33 0.66 -0.66 1.32 -1 2 C-2.65 2.33 -4.3 2.66 -6 3 C-6.66 6.3 -7.32 9.6 -8 13 C-8.33 13 -8.66 13 -9 13 C-9.33 11.02 -9.66 9.04 -10 7 C-10.99 7.495 -10.99 7.495 -12 8 C-11.05322042 4.81537776 -10.33558155 3.26302338 -7.6875 1.1875 C-4.86055017 -0.06161737 -3.05100339 -0.26151458 0 0 Z " fill="#47A976" transform="translate(192,309)"/>
<path d="M0 0 C0.66 0 1.32 0 2 0 C1.40895235 4.84659077 0.02055843 8.60748167 -2 13 C-2.66 12.67 -3.32 12.34 -4 12 C-2.66666667 8 -1.33333333 4 0 0 Z " fill="#23985B" transform="translate(208,264)"/>
<path d="M0 0 C1.32 0 2.64 0 4 0 C4 2.64 4 5.28 4 8 C3.01 7.67 2.02 7.34 1 7 C0.67 4.69 0.34 2.38 0 0 Z " fill="#14914F" transform="translate(343,259)"/>
<path d="M0 0 C0.99 0 1.98 0 3 0 C2.67 2.64 2.34 5.28 2 8 C1.01 8.33 0.02 8.66 -1 9 C-0.67 6.03 -0.34 3.06 0 0 Z " fill="#44A773" transform="translate(389,302)"/>
<path d="M0 0 C2.31 0 4.62 0 7 0 C6.34 0.66 5.68 1.32 5 2 C4.53837573 4.43252661 4.53837573 4.43252661 4.375 7.125 C4.30023438 8.03507812 4.22546875 8.94515625 4.1484375 9.8828125 C4.09945312 10.58148438 4.05046875 11.28015625 4 12 C3.67 12 3.34 12 3 12 C2.92652344 10.95199219 2.92652344 10.95199219 2.8515625 9.8828125 C2.73941406 8.51769531 2.73941406 8.51769531 2.625 7.125 C2.55539063 6.22007812 2.48578125 5.31515625 2.4140625 4.3828125 C2.20431868 1.82058097 2.20431868 1.82058097 0 0 Z " fill="#179252" transform="translate(215,310)"/>
<path d="M0 0 C-2.62198774 2.15377564 -4.64404172 3.40072174 -8 4 C-8.33 3.01 -8.66 2.02 -9 1 C-5.8035914 -0.06546953 -3.34252724 -0.07427838 0 0 Z " fill="#DFF0E7" transform="translate(252,161)"/>
</svg>
