<svg xmlns="http://www.w3.org/2000/svg" xmlns:xlink="http://www.w3.org/1999/xlink" width="500" zoomAndPan="magnify" viewBox="0 0 375 374.999991" height="500" preserveAspectRatio="xMidYMid meet" version="1.0"><defs><g/><clipPath id="cf76f36d6c"><path d="M 87.347656 85 L 287.597656 85 L 287.597656 307.835938 L 87.347656 307.835938 Z M 87.347656 85 " clip-rule="nonzero"/></clipPath></defs><rect x="-37.5" width="450" fill="#ffffff" y="-37.499999" height="449.999989" fill-opacity="1"/><rect x="-37.5" width="450" fill="#ffffff" y="-37.499999" height="449.999989" fill-opacity="1"/><g clip-path="url(#cf76f36d6c)"><path fill="#078b46" d="M 287.609375 210.382812 C 287.632812 212.617188 287.441406 214.851562 287.316406 217.085938 C 287.25 218.203125 287.085938 219.308594 286.972656 220.425781 C 286.84375 221.539062 286.746094 222.65625 286.539062 223.753906 C 283.964844 241.511719 276.191406 258.503906 264.566406 272.332031 C 252.957031 286.164062 237.46875 296.871094 220.164062 302.625 C 215.832031 304.023438 211.429688 305.265625 206.933594 306.054688 L 205.25 306.378906 C 204.691406 306.488281 204.125 306.550781 203.558594 306.636719 L 200.167969 307.117188 L 196.757812 307.433594 L 195.046875 307.589844 L 193.335938 307.664062 L 189.910156 307.800781 L 186.480469 307.769531 L 184.761719 307.75 C 184.191406 307.730469 183.621094 307.6875 183.050781 307.652344 L 179.621094 307.441406 L 176.203125 307.0625 L 174.496094 306.871094 L 172.796875 306.59375 L 169.402344 306.027344 L 166.035156 305.304688 C 148.113281 301.253906 131.316406 292.109375 118.058594 279.183594 C 104.785156 266.277344 95.101562 249.605469 90.511719 231.507812 L 89.683594 228.105469 L 89.019531 224.667969 C 88.914062 224.09375 88.785156 223.519531 88.699219 222.945312 L 88.453125 221.210938 C 88.296875 220.054688 88.109375 218.898438 87.980469 217.738281 C 87.789062 215.414062 87.5 213.085938 87.460938 210.75 C 87.421875 209.582031 87.347656 208.414062 87.34375 207.242188 L 87.386719 203.734375 C 87.546875 194.375 89.121094 185.027344 91.867188 176.03125 C 94.5625 167.011719 98.679688 158.433594 103.753906 150.484375 C 104.355469 149.46875 105.066406 148.523438 105.730469 147.546875 C 106.417969 146.585938 107.066406 145.597656 107.785156 144.664062 C 109.253906 142.8125 110.644531 140.898438 112.234375 139.144531 C 113.011719 138.257812 113.773438 137.351562 114.570312 136.480469 C 115.148438 135.878906 115.597656 135.167969 115.910156 134.394531 C 135.675781 85.699219 204.300781 67.183594 257.074219 109.472656 C 257.894531 110.132812 257.464844 111.457031 256.417969 111.5 C 238.769531 112.210938 226.21875 127.746094 208.253906 141.65625 C 189.214844 156.398438 164.097656 169.308594 120.398438 160.804688 C 120.222656 160.773438 120.050781 160.734375 119.882812 160.695312 C 118.070312 160.25 117.53125 157.941406 118.992188 156.785156 C 120.53125 155.566406 122.09375 154.367188 123.671875 153.183594 C 127.636719 150.21875 131.710938 147.367188 135.859375 144.617188 C 137.929688 143.238281 140.023438 141.886719 142.132812 140.554688 C 144.242188 139.230469 146.367188 137.929688 148.507812 136.652344 C 152.792969 134.089844 157.144531 131.636719 161.554688 129.296875 C 165.964844 126.957031 170.445312 124.738281 174.996094 122.675781 C 179.550781 120.609375 184.175781 118.703125 188.902344 117.0625 C 191.265625 116.242188 193.65625 115.492188 196.078125 114.84375 C 197.425781 114.484375 198.78125 114.15625 200.148438 113.871094 C 200.308594 113.835938 200.265625 113.597656 200.105469 113.617188 C 198.714844 113.800781 197.332031 114.023438 195.949219 114.28125 C 193.46875 114.746094 191.007812 115.3125 188.566406 115.957031 C 183.683594 117.242188 178.875 118.804688 174.125 120.53125 C 169.378906 122.261719 164.6875 124.152344 160.050781 126.175781 C 155.414062 128.195312 150.832031 130.339844 146.296875 132.59375 C 144.03125 133.71875 141.777344 134.875 139.535156 136.054688 C 137.292969 137.238281 135.066406 138.449219 132.851562 139.683594 C 129.84375 141.367188 126.867188 143.101562 123.914062 144.894531 L 123.691406 145.113281 C 122.96875 145.859375 122.277344 146.636719 121.566406 147.398438 C 120.113281 148.894531 118.851562 150.546875 117.5 152.136719 C 116.839844 152.941406 116.25 153.800781 115.617188 154.628906 C 115.003906 155.46875 114.34375 156.28125 113.789062 157.164062 C 109.101562 164.050781 105.210938 171.539062 102.574219 179.488281 C 99.894531 187.414062 98.222656 195.714844 97.832031 204.128906 L 97.691406 207.285156 C 97.660156 208.335938 97.703125 209.390625 97.703125 210.445312 C 97.671875 212.554688 97.875 214.652344 97.980469 216.757812 C 98.0625 217.8125 98.207031 218.855469 98.3125 219.902344 L 98.488281 221.476562 C 98.546875 222 98.652344 222.519531 98.730469 223.039062 L 99.234375 226.164062 L 99.894531 229.257812 C 103.550781 245.75 111.886719 261.25 123.75 273.507812 C 135.597656 285.777344 150.90625 294.757812 167.550781 299.058594 L 170.679688 299.828125 L 173.84375 300.453125 L 175.429688 300.761719 L 180.222656 301.441406 L 183.441406 301.738281 C 183.980469 301.785156 184.515625 301.84375 185.054688 301.878906 L 186.667969 301.945312 L 189.902344 302.074219 L 193.140625 302.039062 L 194.761719 302.019531 L 196.375 301.921875 L 199.609375 301.71875 L 202.832031 301.359375 C 203.367188 301.296875 203.90625 301.253906 204.441406 301.167969 L 206.042969 300.910156 C 210.328125 300.292969 214.535156 299.234375 218.695312 298.027344 C 235.3125 293.058594 250.5 283.273438 262.136719 270.226562 C 273.78125 257.195312 281.898438 240.875 284.953125 223.492188 C 285.1875 222.417969 285.320312 221.320312 285.476562 220.230469 C 285.621094 219.136719 285.820312 218.050781 285.917969 216.953125 C 286.109375 214.753906 286.363281 212.558594 286.402344 210.347656 C 286.507812 208.140625 286.5625 205.929688 286.488281 203.722656 C 286.433594 201.511719 286.308594 199.300781 286.097656 197.097656 C 285.28125 188.285156 283.246094 179.5625 280.042969 171.269531 C 283.492188 179.460938 285.804688 188.152344 286.894531 197.011719 C 287.175781 199.226562 287.371094 201.449219 287.492188 203.679688 C 287.632812 205.910156 287.648438 208.148438 287.609375 210.382812 " fill-opacity="1" fill-rule="nonzero"/></g><g fill="#078b46" fill-opacity="1"><g transform="translate(117.948279, 211.283717)"><g><path d="M 2.171875 0.109375 C 1.960938 0.109375 1.804688 0.0351562 1.703125 -0.109375 C 1.597656 -0.265625 1.546875 -0.453125 1.546875 -0.671875 C 1.566406 -1.015625 1.632812 -1.222656 1.75 -1.296875 C 1.863281 -1.367188 2.085938 -1.40625 2.421875 -1.40625 C 3.097656 -1.40625 3.59375 -1.523438 3.90625 -1.765625 C 4.21875 -2.015625 4.40625 -2.304688 4.46875 -2.640625 C 4.539062 -2.984375 4.59375 -3.46875 4.625 -4.09375 L 4.6875 -17.984375 C 4.6875 -18.691406 4.609375 -19.222656 4.453125 -19.578125 C 4.304688 -19.941406 4.066406 -20.203125 3.734375 -20.359375 C 3.410156 -20.523438 2.945312 -20.671875 2.34375 -20.796875 C 1.945312 -20.859375 1.703125 -20.925781 1.609375 -21 C 1.515625 -21.070312 1.46875 -21.269531 1.46875 -21.59375 C 1.46875 -21.875 1.539062 -22.0625 1.6875 -22.15625 C 1.84375 -22.25 2.085938 -22.296875 2.421875 -22.296875 C 3.859375 -22.296875 5 -22.195312 5.84375 -22 C 6.6875 -21.800781 7.425781 -21.441406 8.0625 -20.921875 C 8.707031 -20.410156 9.414062 -19.628906 10.1875 -18.578125 L 19.78125 -5.984375 L 19.875 -5.984375 L 19.8125 -17.984375 C 19.789062 -18.617188 19.742188 -19.101562 19.671875 -19.4375 C 19.597656 -19.78125 19.40625 -20.070312 19.09375 -20.3125 C 18.78125 -20.5625 18.285156 -20.6875 17.609375 -20.6875 L 17.390625 -20.6875 C 17.160156 -20.6875 16.992188 -20.726562 16.890625 -20.8125 C 16.785156 -20.894531 16.71875 -21.097656 16.6875 -21.421875 C 16.6875 -21.628906 16.742188 -21.804688 16.859375 -21.953125 C 16.984375 -22.109375 17.140625 -22.1875 17.328125 -22.1875 C 18.816406 -22.113281 19.9375 -22.078125 20.6875 -22.078125 C 21.125 -22.078125 21.972656 -22.101562 23.234375 -22.15625 L 23.96875 -22.1875 C 24.1875 -22.1875 24.347656 -22.109375 24.453125 -21.953125 C 24.554688 -21.804688 24.609375 -21.628906 24.609375 -21.421875 C 24.578125 -21.066406 24.503906 -20.851562 24.390625 -20.78125 C 24.273438 -20.71875 24.054688 -20.6875 23.734375 -20.6875 C 23.054688 -20.6875 22.554688 -20.5625 22.234375 -20.3125 C 21.921875 -20.070312 21.726562 -19.78125 21.65625 -19.4375 C 21.59375 -19.101562 21.550781 -18.617188 21.53125 -17.984375 L 21.453125 -0.34375 C 21.429688 -0.0390625 21.140625 0.109375 20.578125 0.109375 C 20.140625 0.109375 19.800781 -0.0390625 19.5625 -0.34375 L 6.375 -17.984375 L 6.265625 -17.984375 L 6.328125 -4.09375 C 6.359375 -3.46875 6.40625 -2.984375 6.46875 -2.640625 C 6.539062 -2.304688 6.734375 -2.015625 7.046875 -1.765625 C 7.367188 -1.523438 7.867188 -1.40625 8.546875 -1.40625 L 8.75 -1.40625 C 8.976562 -1.40625 9.144531 -1.363281 9.25 -1.28125 C 9.363281 -1.195312 9.429688 -0.992188 9.453125 -0.671875 C 9.453125 -0.453125 9.398438 -0.265625 9.296875 -0.109375 C 9.191406 0.0351562 9.03125 0.109375 8.8125 0.109375 C 7.320312 0.0351562 6.191406 0 5.421875 0 C 4.953125 0 4.132812 0.0195312 2.96875 0.0625 Z M 2.171875 0.109375 "/></g></g></g><g fill="#078b46" fill-opacity="1"><g transform="translate(143.737458, 211.283717)"><g><path d="M 0.203125 0.109375 C -0.00390625 0.109375 -0.160156 0.0351562 -0.265625 -0.109375 C -0.367188 -0.265625 -0.421875 -0.453125 -0.421875 -0.671875 C -0.398438 -1.015625 -0.328125 -1.222656 -0.203125 -1.296875 C -0.0859375 -1.367188 0.046875 -1.40625 0.203125 -1.40625 C 0.367188 -1.40625 0.476562 -1.40625 0.53125 -1.40625 C 1.226562 -1.40625 1.738281 -1.582031 2.0625 -1.9375 C 2.394531 -2.300781 2.660156 -2.707031 2.859375 -3.15625 C 3.054688 -3.613281 3.1875 -3.925781 3.25 -4.09375 L 9.375 -18.578125 C 9.519531 -18.929688 9.59375 -19.210938 9.59375 -19.421875 C 9.59375 -19.847656 9.425781 -20.148438 9.09375 -20.328125 C 8.769531 -20.515625 8.316406 -20.671875 7.734375 -20.796875 C 7.335938 -20.859375 7.09375 -20.925781 7 -21 C 6.90625 -21.070312 6.859375 -21.269531 6.859375 -21.59375 C 6.859375 -21.875 6.929688 -22.0625 7.078125 -22.15625 C 7.234375 -22.25 7.476562 -22.296875 7.8125 -22.296875 C 8.976562 -22.296875 9.90625 -22.207031 10.59375 -22.03125 C 11.28125 -21.851562 11.878906 -21.5 12.390625 -20.96875 C 12.898438 -20.445312 13.378906 -19.648438 13.828125 -18.578125 L 19.703125 -4.09375 C 20.054688 -3.207031 20.394531 -2.539062 20.71875 -2.09375 C 21.039062 -1.65625 21.53125 -1.425781 22.1875 -1.40625 L 22.40625 -1.40625 C 22.632812 -1.40625 22.796875 -1.363281 22.890625 -1.28125 C 22.984375 -1.195312 23.039062 -0.992188 23.0625 -0.671875 C 23.0625 -0.453125 23.007812 -0.265625 22.90625 -0.109375 C 22.800781 0.0351562 22.644531 0.109375 22.4375 0.109375 C 20.9375 0.0351562 19.648438 0 18.578125 0 C 17.179688 0 15.738281 0.0351562 14.25 0.109375 C 14.039062 0.109375 13.878906 0.0351562 13.765625 -0.109375 C 13.660156 -0.265625 13.609375 -0.453125 13.609375 -0.671875 C 13.640625 -0.992188 13.703125 -1.195312 13.796875 -1.28125 C 13.890625 -1.363281 14.050781 -1.40625 14.28125 -1.40625 C 15.070312 -1.40625 15.628906 -1.476562 15.953125 -1.625 C 16.285156 -1.78125 16.453125 -2.054688 16.453125 -2.453125 C 16.453125 -2.753906 16.3125 -3.300781 16.03125 -4.09375 L 14.84375 -7 L 6.1875 -7 C 5.601562 -5.550781 5.269531 -4.707031 5.1875 -4.46875 C 5.113281 -4.238281 5.078125 -4.113281 5.078125 -4.09375 C 4.796875 -3.207031 4.65625 -2.632812 4.65625 -2.375 C 4.65625 -1.976562 4.828125 -1.71875 5.171875 -1.59375 C 5.523438 -1.46875 6.191406 -1.40625 7.171875 -1.40625 L 7.390625 -1.40625 C 7.617188 -1.40625 7.78125 -1.363281 7.875 -1.28125 C 7.96875 -1.195312 8.023438 -0.992188 8.046875 -0.671875 C 8.046875 -0.453125 7.992188 -0.265625 7.890625 -0.109375 C 7.785156 0.0351562 7.628906 0.109375 7.421875 0.109375 C 5.929688 0.0351562 4.660156 0 3.609375 0 C 2.859375 0 1.722656 0.0351562 0.203125 0.109375 Z M 6.859375 -8.5 L 14.203125 -8.5 L 10.671875 -17.5 L 10.5625 -17.5 Z M 6.859375 -8.5 "/></g></g></g><g fill="#078b46" fill-opacity="1"><g transform="translate(166.587302, 211.283717)"><g><path d="M 6.265625 0.109375 C 6.054688 0.109375 5.898438 0.0351562 5.796875 -0.109375 C 5.691406 -0.265625 5.640625 -0.453125 5.640625 -0.671875 C 5.660156 -1.015625 5.726562 -1.222656 5.84375 -1.296875 C 5.957031 -1.367188 6.179688 -1.40625 6.515625 -1.40625 C 7.191406 -1.40625 7.691406 -1.523438 8.015625 -1.765625 C 8.335938 -2.015625 8.539062 -2.316406 8.625 -2.671875 C 8.707031 -3.035156 8.757812 -3.507812 8.78125 -4.09375 L 8.78125 -20.796875 L 6.375 -20.796875 C 5.582031 -20.765625 4.96875 -20.59375 4.53125 -20.28125 C 4.101562 -19.96875 3.773438 -19.5 3.546875 -18.875 C 3.328125 -18.257812 3.132812 -17.378906 2.96875 -16.234375 C 2.945312 -16.046875 2.804688 -15.894531 2.546875 -15.78125 C 2.296875 -15.664062 2.03125 -15.609375 1.75 -15.609375 C 1.539062 -15.609375 1.347656 -15.671875 1.171875 -15.796875 C 0.992188 -15.929688 0.90625 -16.101562 0.90625 -16.3125 L 1.015625 -21.25 C 1.015625 -21.800781 1.328125 -22.078125 1.953125 -22.078125 L 19.078125 -22.078125 C 19.679688 -22.078125 19.984375 -21.800781 19.984375 -21.25 L 20.125 -16.3125 C 20.125 -16.101562 20.03125 -15.929688 19.84375 -15.796875 C 19.65625 -15.671875 19.457031 -15.609375 19.25 -15.609375 C 18.96875 -15.609375 18.703125 -15.664062 18.453125 -15.78125 C 18.210938 -15.894531 18.082031 -16.046875 18.0625 -16.234375 C 17.875 -17.398438 17.675781 -18.285156 17.46875 -18.890625 C 17.257812 -19.503906 16.929688 -19.96875 16.484375 -20.28125 C 16.035156 -20.59375 15.414062 -20.765625 14.625 -20.796875 L 12.25 -20.796875 L 12.25 -4.09375 C 12.269531 -3.507812 12.320312 -3.035156 12.40625 -2.671875 C 12.488281 -2.316406 12.691406 -2.015625 13.015625 -1.765625 C 13.347656 -1.523438 13.851562 -1.40625 14.53125 -1.40625 L 14.734375 -1.40625 C 14.941406 -1.40625 15.097656 -1.363281 15.203125 -1.28125 C 15.304688 -1.195312 15.375 -0.992188 15.40625 -0.671875 C 15.40625 -0.453125 15.347656 -0.265625 15.234375 -0.109375 C 15.128906 0.0351562 14.972656 0.109375 14.765625 0.109375 C 13.273438 0.0351562 11.898438 0 10.640625 0 C 9.242188 0 7.785156 0.0351562 6.265625 0.109375 Z M 6.265625 0.109375 "/></g></g></g><g fill="#078b46" fill-opacity="1"><g transform="translate(187.582563, 211.283717)"><g><path d="M 12.5625 0.703125 C 10.769531 0.703125 9.238281 0.390625 7.96875 -0.234375 C 6.695312 -0.867188 5.734375 -1.695312 5.078125 -2.71875 C 4.421875 -3.75 4.09375 -4.863281 4.09375 -6.0625 L 4.09375 -17.984375 C 4.070312 -18.566406 4.019531 -19.039062 3.9375 -19.40625 C 3.851562 -19.769531 3.644531 -20.070312 3.3125 -20.3125 C 2.988281 -20.5625 2.488281 -20.6875 1.8125 -20.6875 L 1.609375 -20.6875 C 1.378906 -20.6875 1.21875 -20.726562 1.125 -20.8125 C 1.03125 -20.894531 0.96875 -21.097656 0.9375 -21.421875 C 0.9375 -21.628906 0.988281 -21.804688 1.09375 -21.953125 C 1.207031 -22.109375 1.367188 -22.1875 1.578125 -22.1875 C 3.066406 -22.113281 4.441406 -22.078125 5.703125 -22.078125 C 7.128906 -22.078125 8.585938 -22.113281 10.078125 -22.1875 C 10.285156 -22.1875 10.441406 -22.109375 10.546875 -21.953125 C 10.648438 -21.804688 10.703125 -21.628906 10.703125 -21.421875 C 10.679688 -21.097656 10.617188 -20.894531 10.515625 -20.8125 C 10.410156 -20.726562 10.242188 -20.6875 10.015625 -20.6875 C 9.265625 -20.6875 8.710938 -20.566406 8.359375 -20.328125 C 8.015625 -20.097656 7.800781 -19.804688 7.71875 -19.453125 C 7.632812 -19.109375 7.582031 -18.617188 7.5625 -17.984375 L 7.5625 -7.0625 C 7.5625 -5.457031 7.9375 -4.101562 8.6875 -3 C 9.445312 -1.90625 10.925781 -1.359375 13.125 -1.359375 C 15.269531 -1.359375 16.789062 -1.851562 17.6875 -2.84375 C 18.59375 -3.84375 19.046875 -5.085938 19.046875 -6.578125 L 19.046875 -15.78125 C 19.046875 -17.375 18.984375 -18.492188 18.859375 -19.140625 C 18.742188 -19.796875 18.507812 -20.21875 18.15625 -20.40625 C 17.8125 -20.59375 17.207031 -20.6875 16.34375 -20.6875 L 16.140625 -20.6875 C 15.921875 -20.6875 15.757812 -20.726562 15.65625 -20.8125 C 15.550781 -20.894531 15.488281 -21.097656 15.46875 -21.421875 C 15.46875 -21.628906 15.519531 -21.804688 15.625 -21.953125 C 15.726562 -22.109375 15.882812 -22.1875 16.09375 -22.1875 C 17.613281 -22.113281 18.921875 -22.078125 20.015625 -22.078125 C 21.140625 -22.078125 22.445312 -22.113281 23.9375 -22.1875 C 24.144531 -22.1875 24.300781 -22.109375 24.40625 -21.953125 C 24.507812 -21.804688 24.5625 -21.628906 24.5625 -21.421875 C 24.539062 -21.097656 24.476562 -20.894531 24.375 -20.8125 C 24.269531 -20.726562 24.101562 -20.6875 23.875 -20.6875 C 22.9375 -20.6875 22.285156 -20.601562 21.921875 -20.4375 C 21.566406 -20.269531 21.320312 -19.878906 21.1875 -19.265625 C 21.0625 -18.648438 21 -17.5625 21 -16 L 21 -6.234375 C 21 -4.671875 20.566406 -3.367188 19.703125 -2.328125 C 18.835938 -1.285156 17.757812 -0.519531 16.46875 -0.03125 C 15.175781 0.457031 13.875 0.703125 12.5625 0.703125 Z M 12.5625 0.703125 "/></g></g></g><g fill="#078b46" fill-opacity="1"><g transform="translate(212.776878, 211.283717)"><g><path d="M 2.140625 0.109375 C 1.921875 0.109375 1.757812 0.0351562 1.65625 -0.109375 C 1.550781 -0.265625 1.5 -0.453125 1.5 -0.671875 C 1.53125 -1.015625 1.601562 -1.222656 1.71875 -1.296875 C 1.832031 -1.367188 2.050781 -1.40625 2.375 -1.40625 C 3.050781 -1.40625 3.550781 -1.523438 3.875 -1.765625 C 4.207031 -2.015625 4.414062 -2.316406 4.5 -2.671875 C 4.582031 -3.035156 4.632812 -3.507812 4.65625 -4.09375 L 4.65625 -17.953125 C 4.632812 -18.554688 4.582031 -19.035156 4.5 -19.390625 C 4.414062 -19.742188 4.207031 -20.046875 3.875 -20.296875 C 3.550781 -20.554688 3.050781 -20.6875 2.375 -20.6875 L 2.171875 -20.6875 C 1.929688 -20.6875 1.765625 -20.726562 1.671875 -20.8125 C 1.585938 -20.894531 1.53125 -21.097656 1.5 -21.421875 C 1.5 -21.628906 1.550781 -21.804688 1.65625 -21.953125 C 1.757812 -22.109375 1.921875 -22.1875 2.140625 -22.1875 C 3.648438 -22.113281 5.035156 -22.078125 6.296875 -22.078125 L 12.3125 -22.078125 C 14.113281 -22.054688 15.613281 -21.769531 16.8125 -21.21875 C 18.019531 -20.675781 18.898438 -19.976562 19.453125 -19.125 C 20.015625 -18.269531 20.296875 -17.351562 20.296875 -16.375 C 20.296875 -15.09375 19.785156 -13.914062 18.765625 -12.84375 C 17.753906 -11.769531 16.375 -11 14.625 -10.53125 L 15.21875 -9.59375 C 16.195312 -8 17.082031 -6.632812 17.875 -5.5 C 18.675781 -4.375 19.539062 -3.320312 20.46875 -2.34375 C 21.125 -1.8125 21.828125 -1.5 22.578125 -1.40625 C 22.617188 -1.40625 22.722656 -1.394531 22.890625 -1.375 C 23.054688 -1.363281 23.191406 -1.300781 23.296875 -1.1875 C 23.398438 -1.070312 23.453125 -0.898438 23.453125 -0.671875 C 23.453125 -0.453125 23.398438 -0.265625 23.296875 -0.109375 C 23.191406 0.0351562 23.03125 0.109375 22.8125 0.109375 L 21.90625 0.0625 C 20.882812 0.0195312 20.140625 0 19.671875 0 C 18.734375 -0.1875 17.929688 -0.519531 17.265625 -1 C 16.609375 -1.476562 15.953125 -2.160156 15.296875 -3.046875 C 14.617188 -3.929688 13.671875 -5.378906 12.453125 -7.390625 L 11.828125 -8.40625 C 11.484375 -8.9375 11.144531 -9.300781 10.8125 -9.5 C 10.488281 -9.695312 9.929688 -9.796875 9.140625 -9.796875 L 8.125 -9.796875 L 8.125 -4.09375 C 8.144531 -3.507812 8.195312 -3.035156 8.28125 -2.671875 C 8.363281 -2.316406 8.566406 -2.015625 8.890625 -1.765625 C 9.210938 -1.523438 9.710938 -1.40625 10.390625 -1.40625 L 10.609375 -1.40625 C 10.816406 -1.40625 10.972656 -1.363281 11.078125 -1.28125 C 11.179688 -1.195312 11.242188 -0.992188 11.265625 -0.671875 C 11.265625 -0.453125 11.210938 -0.265625 11.109375 -0.109375 C 11.003906 0.0351562 10.847656 0.109375 10.640625 0.109375 C 9.148438 0.0351562 7.691406 0 6.265625 0 C 5.023438 0 3.648438 0.0351562 2.140625 0.109375 Z M 11.203125 -11.171875 C 14.679688 -11.171875 16.421875 -12.800781 16.421875 -16.0625 C 16.421875 -17.394531 15.960938 -18.515625 15.046875 -19.421875 C 14.140625 -20.335938 12.644531 -20.796875 10.5625 -20.796875 C 9.894531 -20.796875 9.382812 -20.710938 9.03125 -20.546875 C 8.675781 -20.378906 8.4375 -20.097656 8.3125 -19.703125 C 8.1875 -19.304688 8.125 -18.703125 8.125 -17.890625 L 8.125 -11.171875 Z M 11.203125 -11.171875 "/></g></g></g><g fill="#078b46" fill-opacity="1"><g transform="translate(236.256571, 211.283717)"><g><path d="M 2.09375 0.109375 C 1.90625 0.109375 1.757812 0.0351562 1.65625 -0.109375 C 1.550781 -0.265625 1.5 -0.453125 1.5 -0.671875 C 1.53125 -1.015625 1.601562 -1.222656 1.71875 -1.296875 C 1.832031 -1.367188 2.050781 -1.40625 2.375 -1.40625 C 3.050781 -1.40625 3.550781 -1.523438 3.875 -1.765625 C 4.207031 -2.015625 4.414062 -2.316406 4.5 -2.671875 C 4.582031 -3.035156 4.632812 -3.507812 4.65625 -4.09375 L 4.65625 -17.984375 C 4.632812 -18.566406 4.582031 -19.039062 4.5 -19.40625 C 4.414062 -19.769531 4.207031 -20.070312 3.875 -20.3125 C 3.550781 -20.5625 3.050781 -20.6875 2.375 -20.6875 L 2.171875 -20.6875 C 1.929688 -20.6875 1.765625 -20.726562 1.671875 -20.8125 C 1.585938 -20.894531 1.53125 -21.097656 1.5 -21.421875 C 1.5 -21.628906 1.550781 -21.804688 1.65625 -21.953125 C 1.757812 -22.109375 1.90625 -22.1875 2.09375 -22.1875 C 3.632812 -22.113281 5.023438 -22.078125 6.265625 -22.078125 L 17.25 -22.078125 C 17.863281 -22.078125 18.171875 -21.800781 18.171875 -21.25 L 18.265625 -16.34375 C 18.265625 -16.132812 18.160156 -15.960938 17.953125 -15.828125 C 17.742188 -15.703125 17.535156 -15.640625 17.328125 -15.640625 C 17.046875 -15.640625 16.800781 -15.691406 16.59375 -15.796875 C 16.382812 -15.898438 16.265625 -16.0625 16.234375 -16.28125 C 16.046875 -17.414062 15.84375 -18.28125 15.625 -18.875 C 15.40625 -19.476562 15.078125 -19.925781 14.640625 -20.21875 C 14.210938 -20.507812 13.601562 -20.664062 12.8125 -20.6875 L 8.125 -20.6875 L 8.125 -11.796875 L 14.453125 -11.796875 C 14.617188 -11.773438 14.75 -11.6875 14.84375 -11.53125 C 14.9375 -11.382812 14.984375 -11.203125 14.984375 -10.984375 C 14.984375 -10.796875 14.9375 -10.632812 14.84375 -10.5 C 14.75 -10.363281 14.617188 -10.296875 14.453125 -10.296875 L 8.125 -10.296875 L 8.125 -3.671875 C 8.164062 -3.179688 8.222656 -2.789062 8.296875 -2.5 C 8.367188 -2.207031 8.578125 -1.941406 8.921875 -1.703125 C 9.273438 -1.472656 9.820312 -1.375 10.5625 -1.40625 L 13.796875 -1.40625 C 14.609375 -1.425781 15.222656 -1.554688 15.640625 -1.796875 C 16.066406 -2.046875 16.398438 -2.425781 16.640625 -2.9375 C 16.890625 -3.445312 17.1875 -4.285156 17.53125 -5.453125 C 17.695312 -5.878906 18.09375 -6.046875 18.71875 -5.953125 C 18.957031 -5.898438 19.160156 -5.800781 19.328125 -5.65625 C 19.503906 -5.519531 19.582031 -5.347656 19.5625 -5.140625 L 18.859375 -0.734375 C 18.796875 -0.429688 18.691406 -0.234375 18.546875 -0.140625 C 18.410156 -0.046875 18.175781 0 17.84375 0 L 6.296875 0 C 5.035156 0 3.632812 0.0351562 2.09375 0.109375 Z M 2.09375 0.109375 "/></g></g></g><g fill="#078b46" fill-opacity="1"><g transform="translate(130.684164, 240.833715)"><g><path d="M 8.046875 0.4375 C 6.660156 0.4375 5.429688 0.101562 4.359375 -0.5625 C 3.296875 -1.226562 2.472656 -2.109375 1.890625 -3.203125 C 1.316406 -4.304688 1.03125 -5.488281 1.03125 -6.75 C 1.03125 -8.289062 1.378906 -9.632812 2.078125 -10.78125 C 2.773438 -11.925781 3.664062 -12.800781 4.75 -13.40625 C 5.832031 -14.019531 6.929688 -14.328125 8.046875 -14.328125 C 9.453125 -14.328125 10.691406 -13.988281 11.765625 -13.3125 C 12.847656 -12.644531 13.679688 -11.765625 14.265625 -10.671875 C 14.847656 -9.585938 15.140625 -8.414062 15.140625 -7.15625 C 15.140625 -5.613281 14.785156 -4.265625 14.078125 -3.109375 C 13.378906 -1.960938 12.476562 -1.082031 11.375 -0.46875 C 10.269531 0.132812 9.160156 0.4375 8.046875 0.4375 Z M 8.03125 -0.53125 C 9.03125 -0.53125 9.863281 -0.828125 10.53125 -1.421875 C 11.195312 -2.015625 11.691406 -2.8125 12.015625 -3.8125 C 12.347656 -4.820312 12.515625 -5.9375 12.515625 -7.15625 C 12.515625 -8.28125 12.34375 -9.316406 12 -10.265625 C 11.664062 -11.210938 11.160156 -11.96875 10.484375 -12.53125 C 9.816406 -13.09375 9 -13.375 8.03125 -13.375 C 6.5625 -13.375 5.457031 -12.753906 4.71875 -11.515625 C 3.976562 -10.273438 3.609375 -8.707031 3.609375 -6.8125 C 3.609375 -5.675781 3.769531 -4.628906 4.09375 -3.671875 C 4.425781 -2.722656 4.921875 -1.960938 5.578125 -1.390625 C 6.242188 -0.816406 7.0625 -0.53125 8.03125 -0.53125 Z M 8.03125 -0.53125 "/></g></g></g><g fill="#078b46" fill-opacity="1"><g transform="translate(146.851277, 240.833715)"><g><path d="M 1.359375 0.0625 C 1.234375 0.0625 1.132812 0.015625 1.0625 -0.078125 C 1 -0.171875 0.96875 -0.285156 0.96875 -0.421875 C 0.976562 -0.640625 1.019531 -0.769531 1.09375 -0.8125 C 1.164062 -0.851562 1.304688 -0.875 1.515625 -0.875 C 1.941406 -0.875 2.253906 -0.953125 2.453125 -1.109375 C 2.648438 -1.265625 2.769531 -1.445312 2.8125 -1.65625 C 2.851562 -1.875 2.882812 -2.179688 2.90625 -2.578125 L 2.953125 -11.3125 C 2.953125 -11.75 2.898438 -12.082031 2.796875 -12.3125 C 2.703125 -12.539062 2.550781 -12.703125 2.34375 -12.796875 C 2.144531 -12.898438 1.851562 -12.988281 1.46875 -13.0625 C 1.21875 -13.113281 1.0625 -13.160156 1 -13.203125 C 0.945312 -13.242188 0.921875 -13.367188 0.921875 -13.578125 C 0.921875 -13.753906 0.96875 -13.867188 1.0625 -13.921875 C 1.15625 -13.984375 1.304688 -14.015625 1.515625 -14.015625 C 2.421875 -14.015625 3.140625 -13.953125 3.671875 -13.828125 C 4.203125 -13.703125 4.664062 -13.476562 5.0625 -13.15625 C 5.46875 -12.832031 5.914062 -12.34375 6.40625 -11.6875 L 12.4375 -3.765625 L 12.5 -3.765625 L 12.453125 -11.3125 C 12.441406 -11.707031 12.410156 -12.007812 12.359375 -12.21875 C 12.316406 -12.4375 12.195312 -12.617188 12 -12.765625 C 11.800781 -12.921875 11.488281 -13 11.0625 -13 L 10.9375 -13 C 10.789062 -13 10.679688 -13.023438 10.609375 -13.078125 C 10.546875 -13.128906 10.507812 -13.257812 10.5 -13.46875 C 10.5 -13.59375 10.535156 -13.703125 10.609375 -13.796875 C 10.679688 -13.898438 10.773438 -13.953125 10.890625 -13.953125 C 11.828125 -13.898438 12.53125 -13.875 13 -13.875 C 13.28125 -13.875 13.816406 -13.890625 14.609375 -13.921875 L 15.0625 -13.953125 C 15.195312 -13.953125 15.296875 -13.898438 15.359375 -13.796875 C 15.429688 -13.703125 15.46875 -13.59375 15.46875 -13.46875 C 15.445312 -13.25 15.398438 -13.113281 15.328125 -13.0625 C 15.253906 -13.019531 15.117188 -13 14.921875 -13 C 14.492188 -13 14.179688 -12.921875 13.984375 -12.765625 C 13.785156 -12.617188 13.660156 -12.4375 13.609375 -12.21875 C 13.566406 -12.007812 13.539062 -11.707031 13.53125 -11.3125 L 13.484375 -0.21875 C 13.472656 -0.03125 13.289062 0.0625 12.9375 0.0625 C 12.65625 0.0625 12.441406 -0.03125 12.296875 -0.21875 L 4 -11.3125 L 3.9375 -11.3125 L 3.984375 -2.578125 C 3.992188 -2.179688 4.019531 -1.875 4.0625 -1.65625 C 4.113281 -1.445312 4.238281 -1.265625 4.4375 -1.109375 C 4.632812 -0.953125 4.945312 -0.875 5.375 -0.875 L 5.5 -0.875 C 5.644531 -0.875 5.75 -0.847656 5.8125 -0.796875 C 5.882812 -0.742188 5.925781 -0.617188 5.9375 -0.421875 C 5.9375 -0.285156 5.898438 -0.171875 5.828125 -0.078125 C 5.765625 0.015625 5.671875 0.0625 5.546875 0.0625 C 4.609375 0.0195312 3.894531 0 3.40625 0 C 3.113281 0 2.601562 0.015625 1.875 0.046875 Z M 1.359375 0.0625 "/></g></g></g><g fill="#078b46" fill-opacity="1"><g transform="translate(163.062392, 240.833715)"><g/></g></g><g fill="#078b46" fill-opacity="1"><g transform="translate(167.967513, 240.833715)"><g><path d="M 2.484375 -11.21875 C 2.234375 -11.851562 1.988281 -12.289062 1.75 -12.53125 C 1.519531 -12.78125 1.175781 -12.953125 0.71875 -13.046875 C 0.664062 -13.054688 0.578125 -13.070312 0.453125 -13.09375 C 0.335938 -13.125 0.257812 -13.171875 0.21875 -13.234375 C 0.1875 -13.296875 0.171875 -13.398438 0.171875 -13.546875 C 0.171875 -13.722656 0.21875 -13.835938 0.3125 -13.890625 C 0.414062 -13.953125 0.566406 -13.984375 0.765625 -13.984375 C 1.867188 -13.984375 2.707031 -13.816406 3.28125 -13.484375 C 3.851562 -13.148438 4.304688 -12.550781 4.640625 -11.6875 L 7.15625 -3.625 L 7.234375 -3.625 L 9.921875 -13.875 L 11.0625 -13.875 L 14.65625 -3.625 L 14.71875 -3.625 L 17.203125 -11.921875 C 17.265625 -12.140625 17.296875 -12.332031 17.296875 -12.5 C 17.296875 -12.695312 17.222656 -12.828125 17.078125 -12.890625 C 16.929688 -12.960938 16.648438 -13 16.234375 -13 L 16.109375 -13 C 15.960938 -13 15.859375 -13.023438 15.796875 -13.078125 C 15.734375 -13.128906 15.695312 -13.257812 15.6875 -13.46875 C 15.6875 -13.59375 15.71875 -13.703125 15.78125 -13.796875 C 15.851562 -13.898438 15.945312 -13.953125 16.0625 -13.953125 C 17.007812 -13.898438 17.804688 -13.875 18.453125 -13.875 C 18.734375 -13.875 19.269531 -13.890625 20.0625 -13.921875 L 20.53125 -13.953125 C 20.65625 -13.953125 20.75 -13.898438 20.8125 -13.796875 C 20.882812 -13.703125 20.921875 -13.59375 20.921875 -13.46875 C 20.910156 -13.257812 20.875 -13.128906 20.8125 -13.078125 C 20.75 -13.023438 20.644531 -13 20.5 -13 C 19.851562 -13 19.347656 -12.890625 18.984375 -12.671875 C 18.628906 -12.460938 18.375 -12.070312 18.21875 -11.5 L 14.609375 0.21875 L 13.578125 0.21875 L 10.015625 -10.28125 L 7.171875 0.21875 L 6.140625 0.21875 Z M 2.484375 -11.21875 "/></g></g></g><g fill="#078b46" fill-opacity="1"><g transform="translate(188.511853, 240.833715)"><g><path d="M 1.34375 0.0625 C 1.207031 0.0625 1.109375 0.015625 1.046875 -0.078125 C 0.984375 -0.171875 0.953125 -0.285156 0.953125 -0.421875 C 0.960938 -0.640625 1.003906 -0.769531 1.078125 -0.8125 C 1.148438 -0.851562 1.289062 -0.875 1.5 -0.875 C 1.925781 -0.875 2.238281 -0.953125 2.4375 -1.109375 C 2.644531 -1.265625 2.773438 -1.457031 2.828125 -1.6875 C 2.878906 -1.914062 2.910156 -2.210938 2.921875 -2.578125 L 2.921875 -11.3125 C 2.910156 -11.675781 2.878906 -11.972656 2.828125 -12.203125 C 2.773438 -12.429688 2.644531 -12.617188 2.4375 -12.765625 C 2.238281 -12.921875 1.925781 -13 1.5 -13 L 1.359375 -13 C 1.210938 -13 1.109375 -13.023438 1.046875 -13.078125 C 0.992188 -13.128906 0.960938 -13.257812 0.953125 -13.46875 C 0.953125 -13.59375 0.984375 -13.703125 1.046875 -13.796875 C 1.109375 -13.898438 1.207031 -13.953125 1.34375 -13.953125 C 2.289062 -13.898438 3.15625 -13.875 3.9375 -13.875 C 4.820312 -13.875 5.738281 -13.898438 6.6875 -13.953125 C 6.820312 -13.953125 6.921875 -13.898438 6.984375 -13.796875 C 7.046875 -13.703125 7.078125 -13.59375 7.078125 -13.46875 C 7.066406 -13.25 7.023438 -13.113281 6.953125 -13.0625 C 6.878906 -13.019531 6.738281 -13 6.53125 -13 C 6.101562 -13 5.785156 -12.921875 5.578125 -12.765625 C 5.378906 -12.617188 5.253906 -12.429688 5.203125 -12.203125 C 5.148438 -11.972656 5.117188 -11.675781 5.109375 -11.3125 L 5.109375 -7.40625 L 12.015625 -7.40625 L 12.015625 -11.3125 C 11.992188 -11.675781 11.957031 -11.972656 11.90625 -12.203125 C 11.863281 -12.429688 11.738281 -12.617188 11.53125 -12.765625 C 11.320312 -12.921875 11.003906 -13 10.578125 -13 L 10.453125 -13 C 10.304688 -13 10.195312 -13.023438 10.125 -13.078125 C 10.0625 -13.128906 10.023438 -13.257812 10.015625 -13.46875 C 10.015625 -13.59375 10.050781 -13.703125 10.125 -13.796875 C 10.195312 -13.898438 10.289062 -13.953125 10.40625 -13.953125 C 11.363281 -13.898438 12.28125 -13.875 13.15625 -13.875 C 13.957031 -13.875 14.832031 -13.898438 15.78125 -13.953125 C 15.90625 -13.953125 16 -13.898438 16.0625 -13.796875 C 16.132812 -13.703125 16.171875 -13.59375 16.171875 -13.46875 C 16.148438 -13.25 16.097656 -13.113281 16.015625 -13.0625 C 15.941406 -13.019531 15.8125 -13 15.625 -13 C 15.195312 -13 14.875 -12.921875 14.65625 -12.765625 C 14.445312 -12.617188 14.316406 -12.429688 14.265625 -12.203125 C 14.210938 -11.972656 14.179688 -11.675781 14.171875 -11.3125 L 14.171875 -2.578125 C 14.179688 -2.210938 14.210938 -1.914062 14.265625 -1.6875 C 14.316406 -1.457031 14.445312 -1.265625 14.65625 -1.109375 C 14.875 -0.953125 15.195312 -0.875 15.625 -0.875 L 15.75 -0.875 C 15.882812 -0.875 15.984375 -0.847656 16.046875 -0.796875 C 16.109375 -0.742188 16.148438 -0.617188 16.171875 -0.421875 C 16.171875 -0.285156 16.132812 -0.171875 16.0625 -0.078125 C 16 0.015625 15.90625 0.0625 15.78125 0.0625 C 14.832031 0.0195312 13.953125 0 13.140625 0 C 12.273438 0 11.363281 0.0195312 10.40625 0.0625 C 10.289062 0.0625 10.195312 0.015625 10.125 -0.078125 C 10.050781 -0.171875 10.015625 -0.285156 10.015625 -0.421875 C 10.023438 -0.640625 10.070312 -0.769531 10.15625 -0.8125 C 10.238281 -0.851562 10.378906 -0.875 10.578125 -0.875 C 11.003906 -0.875 11.320312 -0.953125 11.53125 -1.109375 C 11.738281 -1.265625 11.863281 -1.457031 11.90625 -1.6875 C 11.957031 -1.914062 11.992188 -2.210938 12.015625 -2.578125 L 12.015625 -6.46875 L 5.109375 -6.46875 L 5.109375 -2.578125 C 5.117188 -2.210938 5.148438 -1.914062 5.203125 -1.6875 C 5.253906 -1.457031 5.378906 -1.265625 5.578125 -1.109375 C 5.785156 -0.953125 6.101562 -0.875 6.53125 -0.875 L 6.671875 -0.875 C 6.816406 -0.875 6.914062 -0.847656 6.96875 -0.796875 C 7.03125 -0.742188 7.066406 -0.617188 7.078125 -0.421875 C 7.078125 -0.285156 7.046875 -0.171875 6.984375 -0.078125 C 6.921875 0.015625 6.820312 0.0625 6.6875 0.0625 C 5.75 0.0195312 4.835938 0 3.953125 0 C 3.160156 0 2.289062 0.0195312 1.34375 0.0625 Z M 1.34375 0.0625 "/></g></g></g><g fill="#078b46" fill-opacity="1"><g transform="translate(205.602802, 240.833715)"><g><path d="M 1.3125 0.0625 C 1.195312 0.0625 1.109375 0.015625 1.046875 -0.078125 C 0.984375 -0.171875 0.953125 -0.285156 0.953125 -0.421875 C 0.960938 -0.640625 1.003906 -0.769531 1.078125 -0.8125 C 1.148438 -0.851562 1.289062 -0.875 1.5 -0.875 C 1.925781 -0.875 2.238281 -0.953125 2.4375 -1.109375 C 2.644531 -1.265625 2.773438 -1.457031 2.828125 -1.6875 C 2.878906 -1.914062 2.910156 -2.210938 2.921875 -2.578125 L 2.921875 -11.3125 C 2.910156 -11.675781 2.878906 -11.972656 2.828125 -12.203125 C 2.773438 -12.429688 2.644531 -12.617188 2.4375 -12.765625 C 2.238281 -12.921875 1.925781 -13 1.5 -13 L 1.359375 -13 C 1.210938 -13 1.109375 -13.023438 1.046875 -13.078125 C 0.992188 -13.128906 0.960938 -13.257812 0.953125 -13.46875 C 0.953125 -13.59375 0.984375 -13.703125 1.046875 -13.796875 C 1.109375 -13.898438 1.195312 -13.953125 1.3125 -13.953125 C 2.28125 -13.898438 3.15625 -13.875 3.9375 -13.875 L 10.84375 -13.875 C 11.226562 -13.875 11.421875 -13.703125 11.421875 -13.359375 L 11.484375 -10.28125 C 11.484375 -10.144531 11.414062 -10.035156 11.28125 -9.953125 C 11.15625 -9.867188 11.023438 -9.828125 10.890625 -9.828125 C 10.710938 -9.828125 10.554688 -9.859375 10.421875 -9.921875 C 10.296875 -9.992188 10.222656 -10.097656 10.203125 -10.234375 C 10.085938 -10.953125 9.957031 -11.5 9.8125 -11.875 C 9.675781 -12.25 9.472656 -12.523438 9.203125 -12.703125 C 8.929688 -12.890625 8.546875 -12.988281 8.046875 -13 L 5.109375 -13 L 5.109375 -7.40625 L 9.09375 -7.40625 C 9.1875 -7.394531 9.265625 -7.34375 9.328125 -7.25 C 9.390625 -7.15625 9.421875 -7.039062 9.421875 -6.90625 C 9.421875 -6.789062 9.390625 -6.6875 9.328125 -6.59375 C 9.265625 -6.507812 9.1875 -6.46875 9.09375 -6.46875 L 5.109375 -6.46875 L 5.109375 -2.3125 C 5.128906 -2 5.160156 -1.75 5.203125 -1.5625 C 5.253906 -1.382812 5.390625 -1.222656 5.609375 -1.078125 C 5.828125 -0.929688 6.171875 -0.863281 6.640625 -0.875 L 8.671875 -0.875 C 9.179688 -0.894531 9.566406 -0.976562 9.828125 -1.125 C 10.097656 -1.28125 10.304688 -1.519531 10.453125 -1.84375 C 10.609375 -2.164062 10.796875 -2.695312 11.015625 -3.4375 C 11.117188 -3.695312 11.367188 -3.796875 11.765625 -3.734375 C 11.910156 -3.710938 12.035156 -3.65625 12.140625 -3.5625 C 12.253906 -3.476562 12.304688 -3.367188 12.296875 -3.234375 L 11.859375 -0.46875 C 11.816406 -0.269531 11.75 -0.140625 11.65625 -0.078125 C 11.570312 -0.0234375 11.425781 0 11.21875 0 L 3.953125 0 C 3.160156 0 2.28125 0.0195312 1.3125 0.0625 Z M 1.3125 0.0625 "/></g></g></g><g fill="#078b46" fill-opacity="1"><g transform="translate(218.668475, 240.833715)"><g><path d="M 1.3125 0.0625 C 1.195312 0.0625 1.109375 0.015625 1.046875 -0.078125 C 0.984375 -0.171875 0.953125 -0.285156 0.953125 -0.421875 C 0.960938 -0.640625 1.003906 -0.769531 1.078125 -0.8125 C 1.148438 -0.851562 1.289062 -0.875 1.5 -0.875 C 1.925781 -0.875 2.238281 -0.953125 2.4375 -1.109375 C 2.644531 -1.265625 2.773438 -1.457031 2.828125 -1.6875 C 2.878906 -1.914062 2.910156 -2.210938 2.921875 -2.578125 L 2.921875 -11.3125 C 2.910156 -11.675781 2.878906 -11.972656 2.828125 -12.203125 C 2.773438 -12.429688 2.644531 -12.617188 2.4375 -12.765625 C 2.238281 -12.921875 1.925781 -13 1.5 -13 L 1.359375 -13 C 1.210938 -13 1.109375 -13.023438 1.046875 -13.078125 C 0.992188 -13.128906 0.960938 -13.257812 0.953125 -13.46875 C 0.953125 -13.59375 0.984375 -13.703125 1.046875 -13.796875 C 1.109375 -13.898438 1.195312 -13.953125 1.3125 -13.953125 C 2.28125 -13.898438 3.15625 -13.875 3.9375 -13.875 L 10.84375 -13.875 C 11.226562 -13.875 11.421875 -13.703125 11.421875 -13.359375 L 11.484375 -10.28125 C 11.484375 -10.144531 11.414062 -10.035156 11.28125 -9.953125 C 11.15625 -9.867188 11.023438 -9.828125 10.890625 -9.828125 C 10.710938 -9.828125 10.554688 -9.859375 10.421875 -9.921875 C 10.296875 -9.992188 10.222656 -10.097656 10.203125 -10.234375 C 10.085938 -10.953125 9.957031 -11.5 9.8125 -11.875 C 9.675781 -12.25 9.472656 -12.523438 9.203125 -12.703125 C 8.929688 -12.890625 8.546875 -12.988281 8.046875 -13 L 5.109375 -13 L 5.109375 -7.40625 L 9.09375 -7.40625 C 9.1875 -7.394531 9.265625 -7.34375 9.328125 -7.25 C 9.390625 -7.15625 9.421875 -7.039062 9.421875 -6.90625 C 9.421875 -6.789062 9.390625 -6.6875 9.328125 -6.59375 C 9.265625 -6.507812 9.1875 -6.46875 9.09375 -6.46875 L 5.109375 -6.46875 L 5.109375 -2.3125 C 5.128906 -2 5.160156 -1.75 5.203125 -1.5625 C 5.253906 -1.382812 5.390625 -1.222656 5.609375 -1.078125 C 5.828125 -0.929688 6.171875 -0.863281 6.640625 -0.875 L 8.671875 -0.875 C 9.179688 -0.894531 9.566406 -0.976562 9.828125 -1.125 C 10.097656 -1.28125 10.304688 -1.519531 10.453125 -1.84375 C 10.609375 -2.164062 10.796875 -2.695312 11.015625 -3.4375 C 11.117188 -3.695312 11.367188 -3.796875 11.765625 -3.734375 C 11.910156 -3.710938 12.035156 -3.65625 12.140625 -3.5625 C 12.253906 -3.476562 12.304688 -3.367188 12.296875 -3.234375 L 11.859375 -0.46875 C 11.816406 -0.269531 11.75 -0.140625 11.65625 -0.078125 C 11.570312 -0.0234375 11.425781 0 11.21875 0 L 3.953125 0 C 3.160156 0 2.28125 0.0195312 1.3125 0.0625 Z M 1.3125 0.0625 "/></g></g></g><g fill="#078b46" fill-opacity="1"><g transform="translate(231.734147, 240.833715)"><g><path d="M 1.3125 0.0625 C 1.195312 0.0625 1.109375 0.015625 1.046875 -0.078125 C 0.984375 -0.171875 0.953125 -0.285156 0.953125 -0.421875 C 0.960938 -0.640625 1.003906 -0.769531 1.078125 -0.8125 C 1.148438 -0.851562 1.289062 -0.875 1.5 -0.875 C 1.925781 -0.875 2.238281 -0.953125 2.4375 -1.109375 C 2.644531 -1.265625 2.773438 -1.457031 2.828125 -1.6875 C 2.878906 -1.914062 2.910156 -2.210938 2.921875 -2.578125 L 2.921875 -11.3125 C 2.910156 -11.675781 2.878906 -11.972656 2.828125 -12.203125 C 2.773438 -12.429688 2.644531 -12.617188 2.4375 -12.765625 C 2.238281 -12.921875 1.925781 -13 1.5 -13 L 1.359375 -13 C 1.210938 -13 1.109375 -13.023438 1.046875 -13.078125 C 0.992188 -13.128906 0.960938 -13.257812 0.953125 -13.46875 C 0.953125 -13.59375 0.984375 -13.703125 1.046875 -13.796875 C 1.109375 -13.898438 1.195312 -13.953125 1.3125 -13.953125 C 2.28125 -13.898438 3.15625 -13.875 3.9375 -13.875 C 4.820312 -13.875 5.738281 -13.898438 6.6875 -13.953125 C 6.820312 -13.953125 6.921875 -13.898438 6.984375 -13.796875 C 7.046875 -13.703125 7.078125 -13.59375 7.078125 -13.46875 C 7.066406 -13.25 7.019531 -13.113281 6.9375 -13.0625 C 6.851562 -13.019531 6.71875 -13 6.53125 -13 C 6.101562 -13 5.785156 -12.921875 5.578125 -12.765625 C 5.378906 -12.617188 5.253906 -12.429688 5.203125 -12.203125 C 5.148438 -11.972656 5.117188 -11.675781 5.109375 -11.3125 L 5.109375 -2.25 C 5.128906 -1.9375 5.160156 -1.695312 5.203125 -1.53125 C 5.253906 -1.363281 5.390625 -1.207031 5.609375 -1.0625 C 5.828125 -0.925781 6.171875 -0.863281 6.640625 -0.875 L 8.625 -0.875 C 9.132812 -0.894531 9.519531 -0.976562 9.78125 -1.125 C 10.050781 -1.28125 10.257812 -1.519531 10.40625 -1.84375 C 10.5625 -2.164062 10.753906 -2.695312 10.984375 -3.4375 C 11.078125 -3.695312 11.320312 -3.796875 11.71875 -3.734375 C 11.851562 -3.710938 11.976562 -3.65625 12.09375 -3.5625 C 12.21875 -3.476562 12.269531 -3.367188 12.25 -3.234375 L 11.8125 -0.46875 C 11.769531 -0.269531 11.703125 -0.140625 11.609375 -0.078125 C 11.523438 -0.0234375 11.378906 0 11.171875 0 L 3.953125 0 C 3.160156 0 2.28125 0.0195312 1.3125 0.0625 Z M 1.3125 0.0625 "/></g></g></g></svg>